<svg xmlns="http://www.w3.org/2000/svg" width="930" height="240"
viewBox="0 0 930 240" role="img" aria-labelledby="title">
<title id="title">MINJA minimal reproduction pipeline</title>
<defs><marker id="arrow" markerWidth="8" markerHeight="8" refX="7" refY="4"
orient="auto"><path d="M0,0 L8,4 L0,8 Z" fill="#202124"/></marker></defs>
<rect width="100%" height="100%" fill="white"/>
<g font-family="Arial, sans-serif" fill="#202124">
<text x="465" y="42" font-size="22" text-anchor="middle">MINJA minimal retrieval chain</text>
<line x1="175" y1="125" x2="205" y2="125" stroke="#202124" marker-end="url(#arrow)"/><line x1="355" y1="125" x2="385" y2="125" stroke="#202124" marker-end="url(#arrow)"/><line x1="535" y1="125" x2="565" y2="125" stroke="#202124" marker-end="url(#arrow)"/><line x1="715" y1="125" x2="745" y2="125" stroke="#202124" marker-end="url(#arrow)"/><rect x="30" y="90" width="145" height="70" rx="8" fill="white" stroke="#2563eb" stroke-width="2"/><text x="102.5" y="132" text-anchor="middle">Attack query</text><rect x="210" y="90" width="145" height="70" rx="8" fill="white" stroke="#2563eb" stroke-width="2"/><text x="282.5" y="132" text-anchor="middle">Agent writes memory</text><rect x="390" y="90" width="145" height="70" rx="8" fill="white" stroke="#2563eb" stroke-width="2"/><text x="462.5" y="132" text-anchor="middle">Victim query</text><rect x="570" y="90" width="145" height="70" rx="8" fill="white" stroke="#2563eb" stroke-width="2"/><text x="642.5" y="132" text-anchor="middle">Top-k retrieval</text><rect x="750" y="90" width="145" height="70" rx="8" fill="white" stroke="#2563eb" stroke-width="2"/><text x="822.5" y="132" text-anchor="middle">Output redirected</text>
<text x="465" y="205" font-size="13" text-anchor="middle">Local synthetic data · deterministic toy agent · no external target</text>
</g></svg>